<svg width="62" height="107" viewBox="0 0 62 107" fill="none" xmlns="http://www.w3.org/2000/svg">
<path d="M41.7376 60.2876L42.1874 60.506L41.7376 60.2876ZM0.545268 96.1077C0.430489 96.3589 0.541049 96.6555 0.792209 96.7703L4.88508 98.6407C5.13624 98.7555 5.43289 98.6449 5.54766 98.3938C5.66244 98.1426 5.55188 97.846 5.30072 97.7312L1.66262 96.0686L3.3252 92.4305C3.43997 92.1794 3.32942 91.8827 3.07826 91.7679C2.8271 91.6531 2.53045 91.7637 2.41567 92.0149L0.545268 96.1077ZM37.2406 0.99996C36.793 1.22292 36.793 1.22292 36.7931 1.22304C36.7932 1.22326 36.7933 1.22351 36.7936 1.22394C36.794 1.2248 36.7947 1.22617 36.7956 1.22805C36.7975 1.23181 36.8003 1.23761 36.8042 1.24544C36.8119 1.26109 36.8235 1.28483 36.8389 1.3165C36.8697 1.37984 36.9156 1.47489 36.9751 1.60037C37.0941 1.85133 37.2676 2.22397 37.4845 2.70799C37.9182 3.67607 38.525 5.0894 39.2152 6.86561C40.596 10.4188 42.3086 15.42 43.6366 21.2111C46.2963 32.8103 47.3936 47.4957 41.2879 60.0691L42.1874 60.506C48.4411 47.6278 47.2899 32.6694 44.6113 20.9876C43.27 15.1383 41.541 10.0898 40.1473 6.5034C39.4504 4.70981 38.8369 3.28087 38.397 2.29913C38.1771 1.80823 38.0006 1.42907 37.8787 1.17196C37.8177 1.04341 37.7704 0.945357 37.7382 0.879102C37.7221 0.845974 37.7097 0.820795 37.7013 0.803726C37.6971 0.79519 37.6939 0.788683 37.6917 0.784223C37.6906 0.781992 37.6898 0.780274 37.6892 0.77907C37.6889 0.778468 37.6886 0.777951 37.6884 0.77765C37.6883 0.777262 37.6881 0.777004 37.2406 0.99996ZM41.2879 60.0691C35.1606 72.6869 25.0532 81.6334 16.4545 87.4314C12.1578 90.3286 8.24529 92.4347 5.40838 93.8158C3.99014 94.5062 2.84134 95.0152 2.04853 95.351C1.65214 95.5189 1.3448 95.6435 1.13733 95.7258C1.03359 95.767 0.954827 95.7976 0.902389 95.8177C0.87617 95.8278 0.856534 95.8353 0.843647 95.8402C0.837207 95.8426 0.832453 95.8444 0.829406 95.8455C0.827884 95.8461 0.826786 95.8465 0.826121 95.8468C0.825788 95.8469 0.825612 95.847 0.825444 95.847C0.825378 95.8471 0.825417 95.847 1.00003 96.3156C1.17464 96.7841 1.1749 96.784 1.17526 96.7839C1.17553 96.7837 1.176 96.7836 1.17653 96.7834C1.17759 96.783 1.17909 96.7824 1.181 96.7817C1.18484 96.7803 1.1904 96.7782 1.19764 96.7754C1.21213 96.7699 1.23339 96.7619 1.26124 96.7511C1.31694 96.7297 1.39904 96.6978 1.50617 96.6553C1.72043 96.5703 2.03484 96.4428 2.43856 96.2718C3.24596 95.9298 4.41076 95.4137 5.8461 94.7149C8.71633 93.3176 12.6708 91.1888 17.0136 88.2605C25.6939 82.4074 35.9552 73.3399 42.1874 60.506L41.2879 60.0691Z" fill="#5C0048"/>
</svg>
