<svg width="24" height="51" viewBox="0 0 24 51" fill="none" xmlns="http://www.w3.org/2000/svg">
<path d="M21.25 1.85C21.1167 2.15 21.0333 2.43333 21 2.7C20.9667 2.93333 20.95 3.28333 20.95 3.75C20.95 4.31666 20.9667 4.75 21 5.05L21.05 6.45C21.05 7.31667 20.9167 8 20.65 8.5C20.4167 8.96666 19.9667 9.2 19.3 9.2C18.7667 9.2 18.35 8.98333 18.05 8.55C17.7833 8.08333 17.65 7.5 17.65 6.8C17.65 5.83333 17.8667 4.88333 18.3 3.95H11.2C11 4.78333 10.6333 6.03333 10.1 7.7C9.46667 9.86667 8.98333 11.6667 8.65 13.1C8.35 14.5333 8.2 16.0833 8.2 17.75C8.43333 17.75 8.68333 17.8167 8.95 17.95C9.21667 18.05 9.4 18.1167 9.5 18.15C10.5 18.5833 11.4333 18.8 12.3 18.8C14.7333 19.3 16.75 20.3333 18.35 21.9C19.95 23.4333 21.2667 25.5667 22.3 28.3C22.7333 28.7667 23 29.5833 23.1 30.75C23.2333 31.8833 23.3 33.5167 23.3 35.65C22.7667 38.55 21.9833 41.15 20.95 43.45C19.95 45.75 18.7333 47.4 17.3 48.4C16.1 49 14.7333 49.4667 13.2 49.8C11.7 50.1333 10.2 50.3 8.7 50.3C6.93333 50.3 5.3 50.05 3.8 49.55C2.3 49.05 1.1 48.3 0.2 47.3V46.25C0.2 43.4833 0.533333 41.7333 1.2 41C1.5 40.7 1.81667 40.55 2.15 40.55C2.41667 40.55 2.65 40.6 2.85 40.7C3.05 40.8333 3.16667 40.9333 3.2 41C3.5 41.6333 3.68333 42.5333 3.75 43.7C3.85 44.6 3.98333 45.25 4.15 45.65C4.31667 46.05 4.66667 46.25 5.2 46.25C6.7 46.25 8.01667 46.1833 9.15 46.05C10.3167 45.95 11.3667 45.6667 12.3 45.2C13.3 44.1667 14.2 42.2667 15 39.5C15.8333 36.7333 16.25 34.05 16.25 31.45C16.25 30.9167 16.2333 30.45 16.2 30.05C16.1667 29.65 16.15 29.3833 16.15 29.25C16.15 27.6833 15.7167 26.2667 14.85 25C14.0167 23.7 12.9 22.6833 11.5 21.95C10.1333 21.2167 8.7 20.85 7.2 20.85C6.83333 20.85 6.43333 20.8833 6 20.95C5.56667 21.0167 5.26667 21.0667 5.1 21.1C4.5 21.2667 3.96667 21.35 3.5 21.35C2.96667 21.35 2.53333 21.1833 2.2 20.85C1.66667 20.2833 1.4 19.4667 1.4 18.4C1.4 17.4 1.7 15.8333 2.3 13.7C2.53333 12.9 2.73333 12.1 2.9 11.3C3.1 10.4667 3.2 9.76667 3.2 9.2C3.2 8.13333 3.36667 6.73333 3.7 5C4.03333 3.26667 4.2 1.85 4.2 0.749997H10.2H17.3C18.4667 0.749997 19.3 0.816664 19.8 0.949997C20.3333 1.05 20.8167 1.35 21.25 1.85Z" fill="#FF4CC4"/>
</svg>
