<svg width="24" height="51" viewBox="0 0 24 51" fill="none" xmlns="http://www.w3.org/2000/svg">
<path d="M19.6 1.3C19.6 2.06667 19.4667 2.68333 19.2 3.15C18.9667 3.58333 18.6667 3.8 18.3 3.8C18.0333 3.8 17.7667 3.66667 17.5 3.4C17.1333 3.76666 16.8667 4.13333 16.7 4.5C16.5667 4.83333 16.45 5.18333 16.35 5.55C16.2833 5.88333 16.2167 6.16666 16.15 6.4C15.9167 7.2 15.6333 8.06666 15.3 9C15 9.9 14.7833 10.5333 14.65 10.9C13.7167 13.3 13.0667 15.3667 12.7 17.1C12.3667 18.7 11.8 20.8333 11 23.5C10.1333 26.3667 9.51667 28.7167 9.15 30.55H11.25C11.5167 30.0167 11.65 29.55 11.65 29.15C11.6833 29.05 11.7 28.8833 11.7 28.65L11.65 27.65C11.5833 27.1833 11.55 26.85 11.55 26.65C11.55 26.2167 11.65 25.7333 11.85 25.2C12.0833 24.6333 12.8333 24.35 14.1 24.35C14.8 24.35 15.4667 24.4333 16.1 24.6C16.7333 24.7667 17.2 25 17.5 25.3C17.5 25.7333 17.4667 26.2833 17.4 26.95L17.35 28.05C17.35 28.7833 17.55 29.35 17.95 29.75C18.0167 29.7167 18.2 29.6667 18.5 29.6C18.8 29.5333 19.1667 29.5 19.6 29.5V27.4C20.1 26.8667 20.6167 26.6 21.15 26.6C21.6833 26.6 22.2 26.8667 22.7 27.4C23 28 23.15 28.6833 23.15 29.45C23.15 30.25 23 31.05 22.7 31.85C22.4 32.65 22.05 33.25 21.65 33.65C21.35 33.95 21 34.1 20.6 34.1C20.4 34.1 20.0667 34.0333 19.6 33.9C19.2 33.7333 18.85 33.65 18.55 33.65C17.85 34.35 17.5 36.0833 17.5 38.85V47.2C17.5 47.5 17.65 47.7333 17.95 47.9C18.2833 48.0667 18.6167 48.1667 18.95 48.2C19.2833 48.2333 19.5 48.25 19.6 48.25V50.35H10.2C9.5 50.35 8.96667 50.2833 8.6 50.15C8.26667 50.05 8.1 49.7667 8.1 49.3C8.1 49 8.16667 48.7667 8.3 48.6C8.46667 48.4667 8.71667 48.2833 9.05 48.05C9.51667 47.7833 9.9 47.5 10.2 47.2C10.6667 47.2 10.95 46.9 11.05 46.3C11.1833 45.7 11.25 44.9667 11.25 44.1V33.65C10.7167 33.65 9.75 33.75 8.35 33.95C6.81667 34.2167 5.63333 34.35 4.8 34.35C2.9 34.35 1.56667 33.7667 0.8 32.6C1.26667 30.2667 1.86667 28.0167 2.6 25.85C3.33333 23.6833 4.3 21.0833 5.5 18.05C6.76667 14.7167 7.75 12.0167 8.45 9.95C9.15 7.88333 9.73333 5.7 10.2 3.4C9.66667 3.4 9.18333 3.18333 8.75 2.75C8.31667 2.31666 8.1 1.83333 8.1 1.3C9.7 0.799999 11.6167 0.549999 13.85 0.549999C16.15 0.549999 18.0667 0.799999 19.6 1.3Z" fill="#FF4CC4"/>
</svg>
