<svg width="25" height="25" viewBox="0 0 25 25" fill="none" xmlns="http://www.w3.org/2000/svg">
<path fill-rule="evenodd" clip-rule="evenodd" d="M5.7302 0C9.83859 0 11.7111 3.46347 12.5006 5.75678C13.2901 3.46347 15.1627 0 19.2711 0C21.9627 0 22.9179 1.45417 22.9179 2.69896C22.9179 4.214 21.5625 6.12959 18.6559 7.29165H23.4375C24.299 7.29165 25 7.99269 25 8.85415V11.9791C25 12.8406 24.299 13.5416 23.4375 13.5416H22.9167V23.4375C22.9167 24.299 22.2156 25 21.3542 25H3.64583C2.78437 25 2.08333 24.299 2.08333 23.4375V13.5416H1.5625C0.701042 13.5416 0 12.8406 0 11.9791V8.85415C0 7.99269 0.701042 7.29165 1.5625 7.29165H6.34539C3.43877 6.12959 2.08333 4.214 2.08333 2.69896C2.08333 1.91354 2.43645 1.21563 3.07604 0.735417C3.71666 0.254167 4.63437 0 5.7302 0ZM13.0209 8.33332V12.5H23.4375C23.724 12.5 23.9583 12.2656 23.9583 11.9791V8.85415C23.9583 8.56769 23.724 8.33332 23.4375 8.33332H13.0209ZM11.9792 12.5V8.33332H1.5625C1.27604 8.33332 1.04167 8.56769 1.04167 8.85415V11.9791C1.04167 12.2656 1.27604 12.5 1.5625 12.5H11.9792ZM11.9792 13.5417V23.9583H3.64583C3.35937 23.9583 3.125 23.724 3.125 23.4375V13.5417H11.9792ZM13.0209 23.9583V13.5417H21.875V23.4375C21.875 23.724 21.6406 23.9583 21.3542 23.9583H13.0209ZM13.1367 7.28125C13.5273 5.60938 14.9877 1.04167 19.2711 1.04167C20.1388 1.04167 20.8409 1.22396 21.2992 1.56875C21.6815 1.85521 21.8763 2.23646 21.8763 2.69896C21.8763 4.55625 18.844 7.10417 13.1367 7.28125ZM5.7302 1.04167C4.12291 1.04167 3.125 1.67604 3.125 2.69896C3.125 4.55729 6.15937 7.10521 11.8698 7.28229C11.4917 5.6 10.0677 1.04167 5.7302 1.04167Z" fill="white"/>
</svg>
