<svg width="31" height="30" viewBox="0 0 31 30" fill="none" xmlns="http://www.w3.org/2000/svg">
<g clip-path="url(#clip0)">
<path d="M18.642 15C18.642 16.5857 17.3566 17.8711 15.771 17.8711C14.1853 17.8711 12.8999 16.5857 12.8999 15C12.8999 13.4143 14.1853 12.1289 15.771 12.1289C17.3566 12.1289 18.642 13.4143 18.642 15Z" fill="#85DBCB"/>
<path d="M22.4863 9.91991C22.3482 9.54591 22.1281 9.2074 21.842 8.92953C21.5641 8.64343 21.2258 8.42325 20.8516 8.28523C20.5481 8.16736 20.0922 8.02705 19.2524 7.98883C18.344 7.9474 18.0716 7.93848 15.7718 7.93848C13.4717 7.93848 13.1994 7.94717 12.2912 7.9886C11.4514 8.02705 10.9952 8.16736 10.692 8.28523C10.3178 8.42325 9.97924 8.64343 9.70161 8.92953C9.4155 9.2074 9.19532 9.54568 9.05708 9.91991C8.9392 10.2234 8.7989 10.6796 8.76067 11.5193C8.71925 12.4275 8.71032 12.6999 8.71032 14.9999C8.71032 17.2997 8.71925 17.5721 8.76067 18.4805C8.7989 19.3203 8.9392 19.7762 9.05708 20.0797C9.19532 20.454 9.41528 20.7923 9.70138 21.0701C9.97924 21.3562 10.3175 21.5764 10.6917 21.7144C10.9952 21.8325 11.4514 21.9728 12.2912 22.011C13.1994 22.0525 13.4715 22.0612 15.7716 22.0612C18.0718 22.0612 18.3442 22.0525 19.2522 22.011C20.0919 21.9728 20.5481 21.8325 20.8516 21.7144C21.6028 21.4247 22.1965 20.8309 22.4863 20.0797C22.6041 19.7762 22.7444 19.3203 22.7829 18.4805C22.8243 17.5721 22.833 17.2997 22.833 14.9999C22.833 12.6999 22.8243 12.4275 22.7829 11.5193C22.7447 10.6796 22.6044 10.2234 22.4863 9.91991ZM15.7718 19.4226C13.3289 19.4226 11.3486 17.4426 11.3486 14.9997C11.3486 12.5569 13.3289 10.5768 15.7718 10.5768C18.2144 10.5768 20.1947 12.5569 20.1947 14.9997C20.1947 17.4426 18.2144 19.4226 15.7718 19.4226ZM20.3696 11.4356C19.7987 11.4356 19.3359 10.9728 19.3359 10.4019C19.3359 9.8311 19.7987 9.3683 20.3696 9.3683C20.9404 9.3683 21.4032 9.8311 21.4032 10.4019C21.403 10.9728 20.9404 11.4356 20.3696 11.4356Z" fill="#85DBCB"/>
<path d="M15.7716 0C7.4886 0 0.771606 6.717 0.771606 15C0.771606 23.283 7.4886 30 15.7716 30C24.0546 30 30.7716 23.283 30.7716 15C30.7716 6.717 24.0546 0 15.7716 0ZM24.3329 18.5511C24.2913 19.468 24.1455 20.094 23.9326 20.6419C23.4852 21.7989 22.5705 22.7135 21.4135 23.161C20.8658 23.3739 20.2396 23.5194 19.3229 23.5613C18.4044 23.6032 18.111 23.6133 15.7718 23.6133C13.4324 23.6133 13.1392 23.6032 12.2205 23.5613C11.3038 23.5194 10.6776 23.3739 10.1299 23.161C9.55495 22.9447 9.03447 22.6057 8.60417 22.1674C8.16609 21.7374 7.82712 21.2167 7.61082 20.6419C7.39796 20.0942 7.25217 19.468 7.21051 18.5513C7.16817 17.6326 7.15833 17.3392 7.15833 15C7.15833 12.6608 7.16817 12.3674 7.21028 11.4489C7.25194 10.532 7.39751 9.90601 7.61037 9.35806C7.82666 8.78334 8.16586 8.26263 8.60417 7.83257C9.03424 7.39426 9.55495 7.05528 10.1297 6.83899C10.6776 6.62613 11.3036 6.48056 12.2205 6.43867C13.139 6.39679 13.4324 6.38672 15.7716 6.38672C18.1108 6.38672 18.4042 6.39679 19.3227 6.4389C20.2396 6.48056 20.8656 6.62613 21.4135 6.83876C21.9883 7.05505 22.509 7.39426 22.9393 7.83257C23.3773 8.26286 23.7166 8.78334 23.9326 9.35806C24.1457 9.90601 24.2913 10.532 24.3332 11.4489C24.375 12.3674 24.3849 12.6608 24.3849 15C24.3849 17.3392 24.375 17.6326 24.3329 18.5511Z" fill="#85DBCB"/>
</g>
<defs>
<clipPath id="clip0">
<rect width="30" height="30" fill="white" transform="translate(0.771606)"/>
</clipPath>
</defs>
</svg>
