<svg width="65" height="77" viewBox="0 0 65 77" fill="none" xmlns="http://www.w3.org/2000/svg">
<path d="M27.8305 19.82C28.3905 20.54 28.8205 21.43 29.1205 22.49C29.4205 23.55 29.6305 24.64 29.7505 25.76C29.8905 26.86 30.0105 28.28 30.1105 30.02C30.2305 32.04 30.3505 33.5 30.4705 34.4C30.9105 34.4 31.2305 34.43 31.4305 34.49C31.6305 34.57 31.7305 34.75 31.7305 35.03C31.7305 36.01 31.0105 36.5 29.5705 36.5C29.1505 36.5 28.3805 36.43 27.2605 36.29C27.0005 36.03 26.8405 35.74 26.7805 35.42V35.24C26.7805 35.1 26.8405 34.75 26.9605 34.19C27.0205 33.89 27.0805 33.53 27.1405 33.11C27.2205 32.71 27.2605 32.29 27.2605 31.85C27.2605 31.23 27.2105 30.66 27.1105 30.14C27.0105 29.5 26.9605 28.69 26.9605 27.71C26.9205 26.53 26.8405 25.58 26.7205 24.86C26.6005 24.12 26.3105 23.43 25.8505 22.79L25.4905 22.25C25.2105 21.79 24.9105 21.4 24.5905 21.08C24.5905 20.9 24.5405 20.76 24.4405 20.66C24.3605 20.56 24.2105 20.44 23.9905 20.3C23.7105 20.14 23.4805 19.98 23.3005 19.82C22.8805 19.82 22.5605 19.86 22.3405 19.94C22.1405 20 22.0405 20.16 22.0405 20.42C21.8405 21.44 21.7405 22.57 21.7405 23.81C21.7405 24.67 21.8005 25.86 21.9205 27.38C22.0005 28.7 22.0405 29.6 22.0405 30.08C22.0405 30.96 22.0705 31.68 22.1305 32.24C22.2105 32.82 22.3805 33.4 22.6405 33.98C22.6405 34.12 22.6905 34.23 22.7905 34.31C22.9105 34.41 23.0805 34.51 23.3005 34.61C23.5005 34.71 23.6505 34.8 23.7505 34.88C23.8705 34.96 23.9305 35.07 23.9305 35.21C23.9305 35.29 23.9305 35.45 23.9305 35.69C23.9305 35.93 23.8905 36.1 23.8105 36.2C23.7305 36.3 23.5905 36.35 23.3905 36.35C23.0305 36.35 22.6105 36.32 22.1305 36.26C21.9505 36.26 21.6605 36.24 21.2605 36.2C20.8605 36.18 20.5105 36.17 20.2105 36.17C19.3105 36.17 18.6305 36.29 18.1705 36.53C17.6305 36.53 17.2305 36.51 16.9705 36.47C16.7105 36.43 16.4705 36.31 16.2505 36.11C16.0305 35.93 15.8105 35.63 15.5905 35.21C15.8905 34.95 16.1805 34.78 16.4605 34.7C16.7405 34.64 17.0905 34.61 17.5105 34.61V23.66C17.5105 23.46 17.5305 23.23 17.5705 22.97C17.6105 22.69 17.6405 22.49 17.6605 22.37C17.7605 21.91 17.8105 21.49 17.8105 21.11C17.8105 20.65 17.7105 20.22 17.5105 19.82C17.5105 19.54 17.5405 19.28 17.6005 19.04C17.6805 18.52 17.7205 18.22 17.7205 18.14C17.7605 17.46 17.7805 16.97 17.7805 16.67C17.7805 16.05 17.7405 15.1 17.6605 13.82C17.6405 13.58 17.6105 13.1 17.5705 12.38C17.5305 11.64 17.5105 10.9 17.5105 10.16C16.8305 10.16 16.2705 10.09 15.8305 9.95C15.3905 9.79 15.1705 9.55 15.1705 9.23C15.1705 8.61 15.2605 8.17 15.4405 7.91C15.6405 7.63 15.9105 7.46 16.2505 7.4C16.6105 7.34 17.1805 7.31 17.9605 7.31C18.1805 7.31 18.4305 7.25 18.7105 7.13C18.9505 7.01 19.1805 6.95 19.4005 6.95C20.6005 6.75 21.7605 6.65 22.8805 6.65C24.6405 6.65 26.1405 6.92 27.3805 7.46C28.6405 8 29.4205 8.9 29.7205 10.16C29.9805 11.2 30.1105 12.16 30.1105 13.04C30.1105 13.92 29.9805 14.67 29.7205 15.29C29.5605 15.69 29.2905 16.13 28.9105 16.61C28.5505 17.09 28.1905 17.51 27.8305 17.87L27.1705 18.53C27.1705 18.77 27.2805 18.98 27.5005 19.16C27.7205 19.38 27.8305 19.6 27.8305 19.82ZM21.4405 8.93C21.4405 10.89 21.5205 13.53 21.6805 16.85C21.6805 17.07 21.8505 17.18 22.1905 17.18C22.6105 17.18 23.1605 17.04 23.8405 16.76C24.5205 16.48 24.9905 16.21 25.2505 15.95C25.2505 15.71 25.3505 15.25 25.5505 14.57C25.7105 14.07 25.8105 13.68 25.8505 13.4C25.9305 12.98 25.9705 12.64 25.9705 12.38C25.9705 12.18 25.9505 11.95 25.9105 11.69C25.8705 11.43 25.8505 11.14 25.8505 10.82C25.8505 10.46 25.7705 10.17 25.6105 9.95C25.4505 9.71 25.2605 9.49 25.0405 9.29C24.8205 9.09 24.6705 8.95 24.5905 8.87L21.4405 8.93ZM45.4618 6.68C45.8018 6.86 46.2318 6.95 46.7518 6.95C47.2118 6.95 47.7218 6.9 48.2818 6.8C48.8818 6.72 49.3018 6.68 49.5418 6.68C49.8418 6.98 50.0618 7.24 50.2018 7.46C50.3418 7.66 50.4118 7.9 50.4118 8.18C50.4118 8.46 50.3318 8.76 50.1718 9.08H48.9718C48.7918 9.42 48.6518 9.76 48.5518 10.1C48.4718 10.44 48.3718 10.91 48.2518 11.51C48.1518 12.05 48.0318 12.61 47.8918 13.19C47.4918 14.69 47.0918 16.33 46.6918 18.11C46.2918 19.87 45.9218 21.57 45.5818 23.21C44.9418 26.19 44.4118 28.54 43.9918 30.26C43.5918 32 43.1018 33.76 42.5218 35.54C42.2418 35.96 41.9818 36.17 41.7418 36.17C41.4818 36.17 41.2418 35.96 41.0218 35.54C40.8218 35.12 40.6018 34.53 40.3618 33.77C40.2818 33.59 40.2118 33.39 40.1518 33.17C39.7718 32.41 39.5818 31.43 39.5818 30.23C39.3018 29.17 38.7718 27.05 37.9918 23.87L37.8118 23.18C37.3918 21.96 37.0518 20.7 36.7918 19.4C36.5318 18.1 36.2618 16.58 35.9818 14.84L35.6218 12.59C35.3018 10.81 35.1418 9.7 35.1418 9.26C35.1418 9 34.9418 8.87 34.5418 8.87L33.7318 8.9C33.7318 8.72 33.7118 8.43 33.6718 8.03C33.6118 7.73 33.5818 7.44 33.5818 7.16C33.5818 6.9 33.8418 6.77 34.3618 6.77L35.2318 6.8C37.2518 6.8 38.7018 6.77 39.5818 6.71C39.9418 6.69 40.2118 6.78 40.3918 6.98C40.5718 7.18 40.6618 7.44 40.6618 7.76C40.6618 8.22 40.5018 8.65 40.1818 9.05C39.8618 9.45 39.4518 9.65 38.9518 9.65C38.9518 10.63 39.0418 11.7 39.2218 12.86C39.4018 14 39.6618 15.39 40.0018 17.03C40.0218 17.23 40.0718 17.51 40.1518 17.87C40.5518 20.31 40.9118 22.27 41.2318 23.75C41.5518 25.21 41.9818 26.59 42.5218 27.89C42.5418 27.61 42.7018 26.97 43.0018 25.97C43.4418 24.57 43.6618 23.64 43.6618 23.18C43.8018 22.5 43.9818 21.75 44.2018 20.93C44.4418 20.09 44.6118 19.49 44.7118 19.13C45.2118 17.31 45.6018 15.75 45.8818 14.45C46.1818 13.13 46.4218 11.73 46.6018 10.25C46.6018 10.11 46.6418 9.97 46.7218 9.83C46.8218 9.67 46.8718 9.56 46.8718 9.5C46.8718 9.38 46.7818 9.24 46.6018 9.08C46.4618 8.94 46.2118 8.77 45.8518 8.57C45.4918 8.39 45.2318 8.22 45.0718 8.06C44.9118 7.9 44.8318 7.65 44.8318 7.31C44.8718 7.31 44.9418 7.3 45.0418 7.28C45.1418 7.26 45.2318 7.2 45.3118 7.1C45.4118 7 45.4618 6.86 45.4618 6.68Z" fill="#8C006D"/>
<path d="M8.87084 57.495C8.94084 57.815 8.98584 58.09 9.00584 58.32C9.02584 58.55 9.03584 58.94 9.03584 59.49C9.03584 59.75 8.90584 59.88 8.64584 59.88C8.51584 59.88 8.33584 59.85 8.10584 59.79C8.02584 59.72 7.97584 59.615 7.95584 59.475C7.93584 59.345 7.92084 59.145 7.91084 58.875C7.91084 58.845 7.90584 58.76 7.89584 58.62C7.89584 58.48 7.88584 58.365 7.86584 58.275C7.84584 58.185 7.81584 58.11 7.77584 58.05C7.70584 57.94 7.64584 57.865 7.59584 57.825C7.55584 57.795 7.50584 57.775 7.44584 57.765C7.13584 57.755 6.66584 57.75 6.03584 57.75H5.49584H5.45084C5.08084 57.75 4.74084 57.745 4.43084 57.735C3.45084 57.715 2.63084 57.705 1.97084 57.705H1.29584C1.29584 57.815 1.31084 57.95 1.34084 58.11C1.35084 58.2 1.36584 58.375 1.38584 58.635C1.41584 58.895 1.43084 59.12 1.43084 59.31C1.43084 59.65 1.38584 59.86 1.29584 59.94C1.17584 59.97 1.07584 59.985 0.99584 59.985C0.74584 59.985 0.58584 59.885 0.51584 59.685C0.44584 59.495 0.40084 59.195 0.38084 58.785C0.38084 58.735 0.37084 58.595 0.35084 58.365C0.33084 58.145 0.29084 57.955 0.23084 57.795C0.23084 57.705 0.22084 57.59 0.20084 57.45C0.18084 57.32 0.17084 57.22 0.17084 57.15C0.17084 56.96 0.23084 56.865 0.35084 56.865H0.68084C0.76084 56.835 0.97584 56.82 1.32584 56.82C1.42584 56.63 1.49084 56.45 1.52084 56.28C1.55084 56.12 1.57584 55.895 1.59584 55.605C1.59584 55.425 1.61084 55.23 1.64084 55.02C1.77084 54.07 2.05584 52.715 2.49584 50.955L2.88584 49.35C3.36584 47.27 3.65584 45.23 3.75584 43.23L4.05584 42.915C4.40584 42.805 4.69584 42.75 4.92584 42.75C5.16584 42.75 5.36584 42.815 5.52584 42.945C5.68584 43.065 5.81084 43.265 5.90084 43.545C6.03084 44.715 6.19584 45.955 6.39584 47.265C6.59584 48.575 6.86084 50.205 7.19084 52.155C7.57084 54.395 7.82584 55.95 7.95584 56.82C8.09584 56.82 8.21084 56.83 8.30084 56.85C8.40084 56.88 8.49584 56.94 8.58584 57.03C8.64584 57.05 8.71584 57.095 8.79584 57.165L8.84084 57.36L8.88584 57.435L8.87084 57.495ZM4.49084 46.47C4.40084 47.17 4.28584 47.85 4.14584 48.51C4.00584 49.16 3.79084 50.105 3.50084 51.345C3.20084 52.575 2.96584 53.595 2.79584 54.405C2.62584 55.225 2.50584 56.03 2.43584 56.82L5.82584 56.85C5.83584 56.82 5.84084 56.775 5.84084 56.715C5.84084 56.645 5.83584 56.585 5.82584 56.535C5.76584 55.385 5.62584 53.985 5.40584 52.335C5.27584 51.245 5.17584 50.395 5.10584 49.785C5.04584 49.175 5.00584 48.52 4.98584 47.82C4.97584 47.51 4.92584 47.21 4.83584 46.92C4.74584 46.62 4.63084 46.47 4.49084 46.47ZM16.5903 45.195C16.5403 45.125 16.4953 45.03 16.4553 44.91C16.4453 44.84 16.4403 44.73 16.4403 44.58C16.4403 44.42 16.4303 44.295 16.4103 44.205C16.3903 44.115 16.3453 44.04 16.2753 43.98C16.0753 43.87 15.8703 43.765 15.6603 43.665C15.2003 43.665 14.7953 43.685 14.4453 43.725C14.1053 43.755 13.8003 43.84 13.5303 43.98C13.4203 44.08 13.3453 44.21 13.3053 44.37C13.2753 44.52 13.2603 44.73 13.2603 45C13.2603 45.47 13.2503 45.955 13.2303 46.455L13.2153 47.325C13.2153 47.475 13.2403 47.775 13.2903 48.225C13.3303 48.525 13.3503 48.735 13.3503 48.855C13.3503 49.095 13.3053 49.305 13.2153 49.485C13.3553 49.605 13.5803 49.685 13.8903 49.725C14.2103 49.755 14.5953 49.77 15.0453 49.77C15.0453 49.52 15.0603 49.31 15.0903 49.14C15.1303 48.96 15.2203 48.87 15.3603 48.87C15.5103 48.87 15.6103 48.885 15.6603 48.915C15.7103 48.935 15.8153 49.02 15.9753 49.17C15.9253 49.27 15.9003 49.38 15.9003 49.5C15.8903 49.55 15.8853 49.635 15.8853 49.755C15.8853 49.965 15.9003 50.185 15.9303 50.415C15.9503 50.695 15.9603 50.895 15.9603 51.015C15.9603 51.215 15.9353 51.37 15.8853 51.48C15.8453 51.58 15.7703 51.63 15.6603 51.63C15.6303 51.61 15.5653 51.57 15.4653 51.51C15.3653 51.45 15.2703 51.375 15.1803 51.285C15.0903 51.195 15.0453 51.105 15.0453 51.015V50.7H13.5303C13.4203 51.02 13.3653 51.445 13.3653 51.975C13.3653 52.315 13.3803 52.65 13.4103 52.98C13.4303 53.38 13.4403 53.655 13.4403 53.805C13.4403 53.845 13.4553 54.39 13.4853 55.44C13.5153 55.88 13.5303 56.24 13.5303 56.52C13.9403 56.66 14.3053 56.745 14.6253 56.775C14.9553 56.805 15.4053 56.82 15.9753 56.82C16.1253 56.75 16.2153 56.645 16.2453 56.505C16.2753 56.415 16.2903 56.27 16.2903 56.07C16.2903 55.86 16.3053 55.695 16.3353 55.575C16.3753 55.465 16.4603 55.375 16.5903 55.305C16.8603 55.305 17.0303 55.44 17.1003 55.71C17.1703 55.99 17.2053 56.36 17.2053 56.82C17.2053 56.96 17.1553 57.09 17.0553 57.21C16.9653 57.34 16.8103 57.52 16.5903 57.75H15.0453C14.0253 57.75 13.1553 57.73 12.4353 57.69C11.7253 57.66 10.9653 57.575 10.1553 57.435V56.82H11.3853C11.4753 56.29 11.5203 55.71 11.5203 55.08C11.5203 54.73 11.5003 54.185 11.4603 53.445C11.4103 52.795 11.3853 52.19 11.3853 51.63V51.015V47.94V46.725V43.98H10.1553V43.365C10.5753 43.255 11.2053 43.15 12.0453 43.05C12.8453 42.95 13.4403 42.85 13.8303 42.75H16.8903C16.9103 42.77 16.9453 42.81 16.9953 42.87C17.0453 42.92 17.0903 42.995 17.1303 43.095C17.1803 43.185 17.2053 43.275 17.2053 43.365C17.2053 43.485 17.2303 43.655 17.2803 43.875C17.3303 44.225 17.3553 44.435 17.3553 44.505C17.3553 44.725 17.3003 44.895 17.1903 45.015C17.0803 45.135 16.8803 45.195 16.5903 45.195ZM26.2433 45.585C26.1933 45.535 26.1483 45.44 26.1083 45.3C26.0983 45.22 26.0933 45.095 26.0933 44.925C26.0933 44.735 26.0833 44.57 26.0633 44.43C26.0433 44.29 25.9983 44.15 25.9283 44.01C25.8383 43.92 25.6783 43.875 25.4483 43.875C25.2483 43.875 25.0133 43.9 24.7433 43.95C24.4233 43.99 24.1983 44.01 24.0683 44.01C23.9783 44.19 23.9333 44.43 23.9333 44.73C23.9333 44.97 23.9583 45.24 24.0083 45.54C24.0483 45.86 24.0683 46.085 24.0683 46.215V52.125V54.645V55.275C24.0683 55.495 24.0533 55.7 24.0233 55.89C24.0033 56.11 23.9933 56.275 23.9933 56.385C23.9933 56.575 24.0183 56.725 24.0683 56.835C24.0883 56.885 24.1283 56.92 24.1883 56.94C24.2483 56.96 24.2983 56.975 24.3383 56.985C24.3883 56.995 24.4233 57 24.4433 57C24.6133 57.02 24.7483 57.055 24.8483 57.105C24.9483 57.165 24.9983 57.28 24.9983 57.45C24.9783 57.47 24.9383 57.505 24.8783 57.555C24.8183 57.605 24.7383 57.65 24.6383 57.69C24.5483 57.74 24.4583 57.765 24.3683 57.765H21.5483C21.4083 57.765 21.3183 57.71 21.2783 57.6C21.2483 57.5 21.2333 57.345 21.2333 57.135C21.3433 57.135 21.4983 57.085 21.6983 56.985C21.8983 56.885 22.0533 56.835 22.1633 56.835L22.1783 54.21C22.1783 53.67 22.1733 53.29 22.1633 53.07C22.1533 52.78 22.1483 52.36 22.1483 51.81L22.1633 49.335V47.775V47.145C22.1633 46.365 22.1433 45.755 22.1033 45.315C22.0733 44.875 21.9883 44.44 21.8483 44.01C21.6083 43.94 21.3483 43.905 21.0683 43.905H20.9933C20.5033 43.905 20.0983 44.015 19.7783 44.235C19.4683 44.445 19.3133 44.77 19.3133 45.21C19.3133 45.32 19.3283 45.445 19.3583 45.585C19.3483 45.605 19.3083 45.635 19.2383 45.675C19.1783 45.705 19.1133 45.72 19.0433 45.72C18.9333 45.72 18.8333 45.675 18.7433 45.585C18.7433 45.465 18.7233 45.245 18.6833 44.925C18.6333 44.475 18.6083 44.2 18.6083 44.1C18.6083 43.8 18.6533 43.56 18.7433 43.38C19.0933 43.2 19.4283 43.065 19.7483 42.975C20.0683 42.885 20.4433 42.84 20.8733 42.84C21.1833 42.84 21.6983 42.83 22.4183 42.81C22.9883 42.78 23.5383 42.765 24.0683 42.765C24.8083 42.765 25.4233 42.8 25.9133 42.87C26.4133 42.94 26.7283 43.11 26.8583 43.38C26.9883 43.75 27.0533 44.11 27.0533 44.46C27.0533 44.79 26.9883 45.06 26.8583 45.27C26.7283 45.48 26.5233 45.585 26.2433 45.585ZM35.0397 43.68C35.0397 43.75 35.0547 43.81 35.0847 43.86C35.1247 43.9 35.1647 43.94 35.2047 43.98C35.3147 44.07 35.3697 44.17 35.3697 44.28C35.3697 44.75 35.3497 45.13 35.3097 45.42C35.2697 45.7 35.1797 45.84 35.0397 45.84C34.8697 45.84 34.7597 45.77 34.7097 45.63C34.6597 45.49 34.6197 45.27 34.5897 44.97C34.5697 44.6 34.5147 44.37 34.4247 44.28C33.9647 44.13 33.5097 44.055 33.0597 44.055C32.6197 44.055 32.2447 44.13 31.9347 44.28C31.8047 44.41 31.6447 44.675 31.4547 45.075C31.2747 45.455 31.1197 45.71 30.9897 45.84C30.9897 45.89 30.9697 45.975 30.9297 46.095C30.8897 46.215 30.8097 46.34 30.6897 46.47C30.5397 47.04 30.4447 47.575 30.4047 48.075C30.3747 48.565 30.3597 49.28 30.3597 50.22V52.08C30.8197 54.69 31.5497 56.255 32.5497 56.775C32.7097 56.855 32.8897 56.895 33.0897 56.895C33.2897 56.895 33.4947 56.855 33.7047 56.775C33.9147 56.705 34.1547 56.595 34.4247 56.445C34.5047 56.295 34.5497 56.125 34.5597 55.935C34.5697 55.815 34.5747 55.62 34.5747 55.35C34.5747 55.09 34.5797 54.875 34.5897 54.705C34.6097 54.545 34.6547 54.395 34.7247 54.255C34.8947 54.255 35.0247 54.27 35.1147 54.3C35.2047 54.34 35.2947 54.395 35.3847 54.465C35.3947 54.475 35.4247 54.495 35.4747 54.525C35.5347 54.565 35.5997 54.585 35.6697 54.585V56.775C35.3897 57.445 34.6797 57.78 33.5397 57.78C33.1097 57.78 32.6747 57.745 32.2347 57.675C31.8047 57.605 31.2897 57.505 30.6897 57.375C30.4397 57.145 30.2497 56.98 30.1197 56.88C29.8297 56.65 29.5847 56.435 29.3847 56.235C29.1947 56.045 29.0047 55.8 28.8147 55.5C28.7147 55.03 28.6097 54.59 28.4997 54.18C28.2897 53.33 28.1297 52.61 28.0197 52.02C27.9197 51.42 27.8697 50.82 27.8697 50.22C27.9297 49.9 28.0097 49.42 28.1097 48.78C28.2297 48.04 28.3397 47.43 28.4397 46.95C28.5397 46.46 28.6647 45.99 28.8147 45.54C28.8947 45.45 28.9847 45.305 29.0847 45.105C29.1547 44.895 29.2647 44.725 29.4147 44.595C29.7747 44.085 30.2547 43.65 30.8547 43.29C31.4647 42.92 32.1297 42.735 32.8497 42.735C33.1097 42.815 33.3297 42.875 33.5097 42.915C33.8997 43.025 34.1997 43.13 34.4097 43.23C34.6197 43.32 34.8297 43.47 35.0397 43.68ZM43.4201 44.025C43.4201 44.555 43.3701 45.035 43.2701 45.465C43.1701 45.885 43.0201 46.415 42.8201 47.055C42.6201 47.465 42.4351 47.83 42.2651 48.15L41.9051 48.87C41.9051 49.03 41.9151 49.125 41.9351 49.155C41.9651 49.175 42.0551 49.185 42.2051 49.185C42.3151 49.285 42.5201 49.435 42.8201 49.635C43.1201 49.835 43.3201 49.985 43.4201 50.085C43.7201 50.485 43.9351 50.945 44.0651 51.465C44.2051 51.975 44.3301 52.63 44.4401 53.43C44.5101 53.95 44.5751 54.355 44.6351 54.645C44.6351 54.745 44.6101 54.955 44.5601 55.275C44.5201 55.515 44.5001 55.68 44.5001 55.77C44.5001 55.94 44.5451 56.07 44.6351 56.16C44.6351 56.23 44.6601 56.295 44.7101 56.355C44.7701 56.415 44.8601 56.495 44.9801 56.595C45.0001 56.615 45.0451 56.655 45.1151 56.715C45.1851 56.775 45.2351 56.83 45.2651 56.88C45.3051 56.94 45.3251 56.995 45.3251 57.045C45.3251 57.165 45.2951 57.285 45.2351 57.405C45.1751 57.525 45.1351 57.6 45.1151 57.63C44.7251 57.63 44.1701 57.64 43.4501 57.66L42.3251 57.675C42.2051 57.545 42.1451 57.415 42.1451 57.285C42.1451 57.235 42.1501 57.19 42.1601 57.15C42.1801 57.11 42.1951 57.085 42.2051 57.075L42.8201 56.46C42.9001 56.27 42.9401 56.07 42.9401 55.86C42.9401 55.72 42.9201 55.52 42.8801 55.26C42.8401 54.98 42.8201 54.775 42.8201 54.645V52.815V52.515C42.8201 52.015 42.7401 51.52 42.5801 51.03C42.4201 50.54 42.1951 50.225 41.9051 50.085C41.6051 49.935 41.3001 49.86 40.9901 49.86C40.6901 49.86 40.3851 49.935 40.0751 50.085C39.8251 50.335 39.7001 50.86 39.7001 51.66C39.7001 52.03 39.7151 52.395 39.7451 52.755C39.7651 53.215 39.7751 53.535 39.7751 53.715C39.7751 53.855 39.7601 53.99 39.7301 54.12C39.7001 54.25 39.6651 54.375 39.6251 54.495C39.5151 54.775 39.4601 55.03 39.4601 55.26V56.46C39.6501 56.55 39.8051 56.665 39.9251 56.805C40.0451 56.955 40.1051 57.095 40.1051 57.225C40.1051 57.415 39.9951 57.565 39.7751 57.675C39.6751 57.635 39.5251 57.605 39.3251 57.585H39.2201C39.0601 57.585 38.8401 57.615 38.5601 57.675C38.2601 57.735 38.0351 57.765 37.8851 57.765C37.7251 57.765 37.5501 57.735 37.3601 57.675C37.2001 57.515 37.1051 57.41 37.0751 57.36C37.0551 57.31 37.0451 57.215 37.0451 57.075C37.1151 57.005 37.2251 56.92 37.3751 56.82C37.4751 56.76 37.5451 56.705 37.5851 56.655C37.6251 56.605 37.6451 56.54 37.6451 56.46V54.945V52.515C37.6451 52.515 37.6501 52.49 37.6601 52.44C37.6701 52.39 37.6751 52.305 37.6751 52.185L37.6451 51.9C37.6451 51.79 37.6851 51.63 37.7651 51.42C37.8951 50.99 37.9601 50.645 37.9601 50.385C37.9601 49.125 37.9401 48.07 37.9001 47.22C37.8701 46.37 37.7851 45.605 37.6451 44.925V44.025C37.4451 44.025 37.2951 44.01 37.1951 43.98C37.0951 43.94 37.0451 43.85 37.0451 43.71C36.9051 43.71 36.8351 43.595 36.8351 43.365C36.8351 43.265 36.8501 43.165 36.8801 43.065C36.9201 42.965 36.9651 42.89 37.0151 42.84C37.0851 42.77 37.1851 42.735 37.3151 42.735C37.3651 42.735 37.4701 42.745 37.6301 42.765C37.9301 42.795 38.1201 42.81 38.2001 42.81L38.5901 42.795C38.8701 42.775 39.0851 42.765 39.2351 42.765C39.5851 42.765 39.8651 42.81 40.0751 42.9C40.2851 42.99 40.3901 43.16 40.3901 43.41C40.3901 43.49 40.3651 43.555 40.3151 43.605C40.2751 43.645 40.2101 43.695 40.1201 43.755C39.9501 43.875 39.8351 43.965 39.7751 44.025C39.7751 44.415 39.8251 44.97 39.9251 45.69C40.0251 46.39 40.0751 46.945 40.0751 47.355C40.0751 47.405 40.0551 47.52 40.0151 47.7C40.0051 47.74 39.9901 47.815 39.9701 47.925C39.9501 48.025 39.9401 48.115 39.9401 48.195C39.9401 48.355 39.9851 48.48 40.0751 48.57C40.6351 48.43 41.0851 48.115 41.4251 47.625C41.7751 47.125 42.0351 46.53 42.2051 45.84C42.2051 45.6 42.2601 45.295 42.3701 44.925C42.4701 44.525 42.5201 44.225 42.5201 44.025H41.9051C41.9051 43.905 41.8501 43.8 41.7401 43.71C41.6401 43.61 41.5901 43.51 41.5901 43.41C41.6801 43.25 41.8001 43.145 41.9501 43.095C42.1001 43.045 42.3201 43.005 42.6101 42.975C42.9701 42.955 43.2401 42.9 43.4201 42.81C43.6101 42.87 43.7501 42.96 43.8401 43.08C43.9401 43.19 43.9901 43.315 43.9901 43.455C43.9901 43.605 43.9351 43.74 43.8251 43.86C43.7151 43.97 43.5801 44.025 43.4201 44.025ZM55.3831 56.52C55.4631 56.6 55.5731 56.68 55.7131 56.76C55.8131 56.83 55.8831 56.885 55.9231 56.925C55.9731 56.975 55.9981 57.045 55.9981 57.135V57.585C55.9881 57.595 55.9581 57.605 55.9081 57.615C55.8581 57.635 55.7881 57.66 55.6981 57.69C55.5781 57.73 55.4731 57.75 55.3831 57.75C55.3031 57.76 55.2531 57.765 55.2331 57.765H54.8731C54.7031 57.755 54.2681 57.75 53.5681 57.75L52.8481 57.765C52.7281 57.645 52.6681 57.555 52.6681 57.495C52.6681 57.445 52.7081 57.38 52.7881 57.3C52.8681 57.23 52.9281 57.175 52.9681 57.135C52.9681 57.065 52.9931 57.005 53.0431 56.955C53.0931 56.915 53.1681 56.87 53.2681 56.82C53.3681 56.77 53.4431 56.725 53.4931 56.685C53.5431 56.645 53.5681 56.59 53.5681 56.52C53.6581 55.83 53.7031 54.99 53.7031 54C53.7031 53.23 53.6781 52.36 53.6281 51.39C53.5881 50.25 53.5681 49.415 53.5681 48.885V47.355C53.5681 46.495 53.5481 45.825 53.5081 45.345L52.3831 48.33C52.3731 48.35 52.3531 48.405 52.3231 48.495C52.2931 48.575 52.2481 48.68 52.1881 48.81C52.1681 48.85 52.0681 49.075 51.8881 49.485C51.7081 49.885 51.5731 50.255 51.4831 50.595C51.3431 51.105 51.1931 51.57 51.0331 51.99C50.8831 52.4 50.6881 52.89 50.4481 53.46C50.1381 54.2 49.8781 54.875 49.6681 55.485C49.6481 55.505 49.5631 55.72 49.4131 56.13C49.1531 56.79 49.0131 57.125 48.9931 57.135C48.7831 57.605 48.5481 57.84 48.2881 57.84C48.1081 57.84 47.9531 57.715 47.8231 57.465C47.6931 57.225 47.6281 56.91 47.6281 56.52V55.305C47.6281 54.605 47.6681 53.765 47.7481 52.785C47.8181 52.045 47.8531 51.425 47.8531 50.925C47.8531 50.475 47.8231 49.99 47.7631 49.47V47.655V47.355V46.455V46.14C47.7131 46.02 47.6681 45.85 47.6281 45.63C47.6181 45.51 47.6131 45.32 47.6131 45.06C47.6131 44.81 47.6031 44.605 47.5831 44.445C47.5631 44.275 47.5181 44.125 47.4481 43.995C47.4281 43.995 47.3881 43.99 47.3281 43.98C47.2781 43.97 47.2031 43.94 47.1031 43.89C47.0131 43.84 46.9231 43.77 46.8331 43.68C46.8131 43.67 46.7831 43.635 46.7431 43.575C46.7131 43.505 46.6981 43.435 46.6981 43.365C46.6981 43.255 46.7431 43.155 46.8331 43.065H48.0631C48.2131 43.065 48.4481 43.04 48.7681 42.99C48.9881 42.95 49.1381 42.93 49.2181 42.93C49.3981 42.93 49.5781 42.975 49.7581 43.065C49.9181 43.065 50.0581 43.13 50.1781 43.26C50.3081 43.39 50.3731 43.53 50.3731 43.68C50.3731 43.82 50.2831 43.91 50.1031 43.95C49.9231 43.98 49.7081 43.995 49.4581 43.995C49.3581 44.095 49.3081 44.44 49.3081 45.03C49.3081 45.33 49.3331 45.93 49.3831 46.83C49.4131 47.17 49.4281 47.435 49.4281 47.625C49.4281 48.165 49.4131 48.86 49.3831 49.71C49.3631 50.55 49.3481 50.97 49.3381 50.97V50.73L49.2931 53.64C49.4131 53.36 49.5331 53.01 49.6531 52.59C49.7031 52.41 49.7531 52.26 49.8031 52.14C49.8431 52.05 49.8931 51.945 49.9531 51.825C50.0131 51.695 50.0531 51.585 50.0731 51.495C50.1031 51.405 50.1181 51.31 50.1181 51.21C50.1781 51.06 50.2681 50.855 50.3881 50.595C50.6381 50.045 50.8331 49.55 50.9731 49.11C51.2531 48.42 51.9731 46.57 53.1331 43.56C53.1431 43.34 53.2131 43.15 53.3431 42.99C53.4731 42.83 53.6481 42.755 53.8681 42.765L54.6481 42.795C54.8281 42.795 54.9731 42.79 55.0831 42.78C55.1931 42.77 55.2931 42.765 55.3831 42.765C55.5331 42.835 55.6481 42.94 55.7281 43.08C55.8081 43.21 55.8481 43.345 55.8481 43.485C55.8481 43.625 55.8081 43.745 55.7281 43.845C55.6481 43.945 55.5331 43.995 55.3831 43.995C55.2431 44.265 55.1531 44.59 55.1131 44.97C55.0831 45.34 55.0681 45.835 55.0681 46.455V49.185V51.63C55.0681 52.24 55.1231 53.06 55.2331 54.09C55.3331 55.21 55.3831 56.02 55.3831 56.52ZM63.8462 45.195C63.7962 45.125 63.7512 45.03 63.7112 44.91C63.7012 44.84 63.6962 44.73 63.6962 44.58C63.6962 44.42 63.6862 44.295 63.6662 44.205C63.6462 44.115 63.6012 44.04 63.5312 43.98C63.3312 43.87 63.1262 43.765 62.9162 43.665C62.4562 43.665 62.0512 43.685 61.7012 43.725C61.3612 43.755 61.0562 43.84 60.7862 43.98C60.6762 44.08 60.6012 44.21 60.5612 44.37C60.5312 44.52 60.5162 44.73 60.5162 45C60.5162 45.47 60.5062 45.955 60.4862 46.455L60.4712 47.325C60.4712 47.475 60.4962 47.775 60.5462 48.225C60.5862 48.525 60.6062 48.735 60.6062 48.855C60.6062 49.095 60.5612 49.305 60.4712 49.485C60.6112 49.605 60.8362 49.685 61.1462 49.725C61.4662 49.755 61.8512 49.77 62.3012 49.77C62.3012 49.52 62.3162 49.31 62.3462 49.14C62.3862 48.96 62.4762 48.87 62.6162 48.87C62.7662 48.87 62.8662 48.885 62.9162 48.915C62.9662 48.935 63.0712 49.02 63.2312 49.17C63.1812 49.27 63.1562 49.38 63.1562 49.5C63.1462 49.55 63.1412 49.635 63.1412 49.755C63.1412 49.965 63.1562 50.185 63.1862 50.415C63.2062 50.695 63.2162 50.895 63.2162 51.015C63.2162 51.215 63.1912 51.37 63.1412 51.48C63.1012 51.58 63.0262 51.63 62.9162 51.63C62.8862 51.61 62.8212 51.57 62.7212 51.51C62.6212 51.45 62.5262 51.375 62.4362 51.285C62.3462 51.195 62.3012 51.105 62.3012 51.015V50.7H60.7862C60.6762 51.02 60.6212 51.445 60.6212 51.975C60.6212 52.315 60.6362 52.65 60.6662 52.98C60.6862 53.38 60.6962 53.655 60.6962 53.805C60.6962 53.845 60.7112 54.39 60.7412 55.44C60.7712 55.88 60.7862 56.24 60.7862 56.52C61.1962 56.66 61.5612 56.745 61.8812 56.775C62.2112 56.805 62.6612 56.82 63.2312 56.82C63.3812 56.75 63.4712 56.645 63.5012 56.505C63.5312 56.415 63.5462 56.27 63.5462 56.07C63.5462 55.86 63.5612 55.695 63.5912 55.575C63.6312 55.465 63.7162 55.375 63.8462 55.305C64.1162 55.305 64.2862 55.44 64.3562 55.71C64.4262 55.99 64.4612 56.36 64.4612 56.82C64.4612 56.96 64.4112 57.09 64.3112 57.21C64.2212 57.34 64.0662 57.52 63.8462 57.75H62.3012C61.2812 57.75 60.4112 57.73 59.6912 57.69C58.9812 57.66 58.2212 57.575 57.4112 57.435V56.82H58.6412C58.7312 56.29 58.7762 55.71 58.7762 55.08C58.7762 54.73 58.7562 54.185 58.7162 53.445C58.6662 52.795 58.6412 52.19 58.6412 51.63V51.015V47.94V46.725V43.98H57.4112V43.365C57.8312 43.255 58.4612 43.15 59.3012 43.05C60.1012 42.95 60.6962 42.85 61.0862 42.75H64.1462C64.1662 42.77 64.2012 42.81 64.2512 42.87C64.3012 42.92 64.3462 42.995 64.3862 43.095C64.4362 43.185 64.4612 43.275 64.4612 43.365C64.4612 43.485 64.4862 43.655 64.5362 43.875C64.5862 44.225 64.6112 44.435 64.6112 44.505C64.6112 44.725 64.5562 44.895 64.4462 45.015C64.3362 45.135 64.1362 45.195 63.8462 45.195ZM28.1105 61.425C27.9805 61.685 27.8954 62.04 27.8554 62.49C27.8254 62.93 27.8104 63.41 27.8104 63.93V68.325L27.6905 69.75L27.8104 71.16V74.775C27.9904 74.775 28.1404 74.84 28.2605 74.97C28.3804 75.1 28.4404 75.24 28.4404 75.39C28.4404 75.59 28.3304 75.69 28.1105 75.69H23.1454H22.2304C22.1304 75.69 21.9804 75.7 21.7804 75.72C21.5804 75.74 21.4404 75.75 21.3604 75.75C21.2204 75.75 21.1204 75.74 21.0604 75.72C20.7804 75.73 20.3654 75.735 19.8154 75.735C19.2154 75.735 18.7254 75.74 18.3454 75.75C17.9654 75.77 17.6054 75.815 17.2654 75.885C17.2054 75.825 17.1304 75.76 17.0404 75.69C16.9604 75.63 16.9004 75.57 16.8604 75.51C16.8304 75.46 16.8154 75.39 16.8154 75.3C16.8154 75.23 16.8304 75.125 16.8604 74.985C16.9304 74.695 16.9654 74.27 16.9654 73.71C17.0154 73.22 17.0404 72.61 17.0404 71.88C17.0404 71.53 17.0304 71.015 17.0104 70.335L16.9954 68.88L17.1304 68.1C17.1304 67.69 17.1554 67.225 17.2054 66.705C17.2454 66.085 17.2654 65.625 17.2654 65.325C17.2654 64.805 17.2254 64.265 17.1454 63.705C17.0754 63.145 16.9654 62.64 16.8154 62.19C16.8154 62.1 16.7954 62.035 16.7554 61.995C16.7154 61.955 16.6404 61.9 16.5304 61.83C16.3904 61.75 16.2754 61.67 16.1854 61.59V60.96H16.5154C16.8354 60.96 17.2054 60.935 17.6254 60.885C17.7154 60.875 17.8854 60.86 18.1354 60.84C18.3854 60.82 18.6104 60.81 18.8104 60.81C19.0704 60.81 19.2654 60.82 19.3954 60.84C19.5154 60.85 19.5854 60.87 19.6054 60.9C19.6354 60.93 19.6454 60.985 19.6354 61.065C19.6354 61.145 19.6354 61.21 19.6354 61.26C19.5254 61.49 19.3854 61.69 19.2154 61.86C19.1554 61.92 19.1104 61.975 19.0804 62.025C19.0504 62.065 19.0354 62.12 19.0354 62.19C19.0354 63 19.0154 64.185 18.9754 65.745C18.9654 65.925 18.9704 66.2 18.9904 66.57L19.0054 67.185C19.0054 67.425 18.9854 67.775 18.9454 68.235C18.9054 68.695 18.8854 69.045 18.8854 69.285C18.8754 69.585 18.8704 70.045 18.8704 70.665C18.8704 71.985 18.9104 73.21 18.9904 74.34V74.4C18.9904 74.52 19.0054 74.585 19.0354 74.595C19.0654 74.615 19.1604 74.63 19.3204 74.64H19.5454H20.7454H21.6004C21.6404 74.24 21.6604 73.79 21.6604 73.29C21.6604 72.86 21.6404 72.265 21.6004 71.505C21.5604 70.785 21.5404 70.27 21.5404 69.96V69.045V66.03V65.145V61.815C21.4904 61.765 21.4304 61.72 21.3604 61.68C21.2904 61.64 21.2454 61.61 21.2254 61.59C21.1154 61.52 21.0404 61.465 21.0004 61.425C20.9604 61.375 20.9404 61.305 20.9404 61.215C20.9404 61.045 20.9504 60.93 20.9704 60.87C21.0004 60.8 21.0854 60.75 21.2254 60.72C21.6254 60.64 22.0704 60.6 22.5604 60.6C22.8804 60.6 23.1454 60.63 23.3554 60.69C23.5754 60.74 23.7054 60.82 23.7455 60.93L23.7754 61.11C23.7754 61.2 23.7504 61.28 23.7004 61.35C23.6504 61.41 23.5754 61.475 23.4754 61.545C23.3654 61.625 23.2804 61.705 23.2204 61.785C23.1604 61.855 23.1304 61.955 23.1304 62.085L23.1454 63.33V64.41L23.2654 66.345C23.2654 66.635 23.2354 67.08 23.1754 67.68C23.1054 68.2 23.0704 68.645 23.0704 69.015C23.0704 69.175 23.0854 69.35 23.1154 69.54C23.1454 69.73 23.1654 69.86 23.1754 69.93C23.2454 70.23 23.2854 70.5 23.2954 70.74C23.3954 72.54 23.4454 73.885 23.4454 74.775H25.8604C25.9404 74.605 25.9804 74.4 25.9804 74.16C25.9804 74.04 25.9754 73.925 25.9655 73.815C25.9554 73.715 25.9454 73.625 25.9354 73.545C25.8854 73.265 25.8604 72.975 25.8604 72.675V69.66C25.8604 69.36 25.8854 69.02 25.9354 68.64C25.9454 68.56 25.9604 68.41 25.9804 68.19C26.0004 67.96 26.0104 67.755 26.0104 67.575C26.0004 67.255 25.9654 66.795 25.9054 66.195C25.8454 65.655 25.8104 65.255 25.8004 64.995C25.8204 64.835 25.8304 64.595 25.8304 64.275C25.8304 63.945 25.8104 63.585 25.7704 63.195C25.7304 62.805 25.6854 62.435 25.6354 62.085L25.5455 61.425H25.2604C25.1304 61.425 25.0454 61.35 25.0054 61.2C24.9654 61.05 24.9454 60.925 24.9454 60.825C25.2054 60.835 25.4804 60.825 25.7704 60.795C26.0604 60.765 26.2354 60.745 26.2954 60.735C26.3954 60.725 26.5655 60.71 26.8054 60.69C27.0554 60.67 27.2804 60.66 27.4804 60.66C27.9704 60.66 28.3854 60.715 28.7254 60.825C28.7254 60.985 28.6904 61.095 28.6204 61.155C28.5504 61.205 28.4454 61.245 28.3054 61.275C28.1754 61.295 28.1105 61.345 28.1105 61.425ZM36.3758 74.31C36.2758 74.49 36.1458 74.665 35.9858 74.835C35.8258 75.005 35.6758 75.135 35.5358 75.225C34.9558 75.595 34.3408 75.78 33.6908 75.78C33.0408 75.78 32.4358 75.605 31.8758 75.255C31.3258 74.915 30.9158 74.495 30.6458 73.995C30.2758 73.295 29.9658 72.575 29.7158 71.835C29.5858 71.305 29.5008 70.77 29.4608 70.23C29.4308 69.68 29.4158 68.995 29.4158 68.175C29.4158 68.045 29.4058 67.86 29.3858 67.62C29.3658 67.36 29.3558 67.165 29.3558 67.035C29.3558 66.805 29.3758 66.57 29.4158 66.33C29.4258 66.27 29.4558 66.105 29.5058 65.835C29.5558 65.565 29.5808 65.34 29.5808 65.16C29.6008 65.06 29.6358 64.87 29.6858 64.59C29.7258 64.32 29.7658 64.105 29.8058 63.945C29.8558 63.785 29.9308 63.66 30.0308 63.57C30.1408 63.42 30.3058 63.175 30.5258 62.835C30.8258 62.375 31.0808 62.015 31.2908 61.755C31.5108 61.495 31.7808 61.27 32.1008 61.08C32.4308 60.89 32.8158 60.795 33.2558 60.795C33.4558 60.795 33.6108 60.805 33.7208 60.825C34.3208 60.825 34.7958 60.915 35.1458 61.095C35.5058 61.275 35.8408 61.595 36.1508 62.055C36.6208 62.365 37.0158 62.845 37.3358 63.495C37.6658 64.145 37.8658 64.86 37.9358 65.64C37.9758 66.05 37.9958 66.59 37.9958 67.26V67.92C37.9958 68.94 37.9108 69.805 37.7408 70.515C37.4408 71.935 36.9858 73.2 36.3758 74.31ZM35.0408 74.1C35.1708 73.77 35.3158 73.35 35.4758 72.84C35.6458 72.33 35.7708 71.9 35.8508 71.55C35.9808 71.14 36.0608 70.73 36.0908 70.32C36.1308 69.91 36.1508 69.4 36.1508 68.79C36.1508 68.58 36.1708 68.315 36.2108 67.995C36.2108 67.935 36.2158 67.83 36.2258 67.68C36.2458 67.52 36.2558 67.37 36.2558 67.23C36.2558 67.09 36.2508 66.93 36.2408 66.75C36.2308 66.56 36.2208 66.415 36.2108 66.315C36.1708 65.915 36.1508 65.615 36.1508 65.415C36.0508 65.215 35.9508 64.915 35.8508 64.515C35.7508 64.095 35.6458 63.78 35.5358 63.57L35.3708 63.21C35.1908 62.82 35.0308 62.515 34.8908 62.295C34.7508 62.075 34.5708 61.91 34.3508 61.8C34.1508 61.8 33.9508 61.79 33.7508 61.77C33.5308 61.75 33.3158 61.74 33.1058 61.74C32.8058 62.04 32.5658 62.355 32.3858 62.685C32.2058 63.005 32.0358 63.4 31.8758 63.87C31.7358 64.14 31.6458 64.415 31.6058 64.695C31.5758 64.965 31.5608 65.305 31.5608 65.715C31.4808 66.355 31.4408 67.065 31.4408 67.845C31.4408 69.255 31.5858 70.79 31.8758 72.45C31.9458 72.59 32.0008 72.74 32.0408 72.9C32.0908 73.06 32.1258 73.165 32.1458 73.215C32.2058 73.425 32.2558 73.585 32.2958 73.695C32.3458 73.815 32.4108 73.915 32.4908 73.995C32.5708 73.995 32.6208 74.01 32.6408 74.04C32.6708 74.07 32.6958 74.135 32.7158 74.235C32.7358 74.335 32.7758 74.415 32.8358 74.475C32.9958 74.635 33.2558 74.715 33.6158 74.715C33.9258 74.715 34.2208 74.655 34.5008 74.535C34.7908 74.425 34.9708 74.28 35.0408 74.1ZM48.6376 60.96C48.6576 61.08 48.6026 61.175 48.4726 61.245C48.3426 61.305 48.2126 61.35 48.0826 61.38C47.9526 61.41 47.8726 61.43 47.8426 61.44C47.5526 61.8 47.2976 62.24 47.0776 62.76C46.8576 63.27 46.6026 63.96 46.3126 64.83C46.0126 65.73 45.7876 66.37 45.6376 66.75C45.6376 66.76 45.5576 67.125 45.3976 67.845C45.2476 68.565 45.1576 68.93 45.1276 68.94C44.9376 69.46 44.7626 70.085 44.6026 70.815C44.4526 71.545 44.2826 72.44 44.0926 73.5C43.9526 74.27 43.8876 74.625 43.8976 74.565C43.8976 74.635 43.9276 74.69 43.9876 74.73C44.0576 74.78 44.1576 74.83 44.2876 74.88C44.5476 74.99 44.7176 75.085 44.7976 75.165C44.7976 75.345 44.7626 75.515 44.6926 75.675C44.6326 75.845 44.5376 75.935 44.4076 75.945C44.2776 75.945 44.1126 75.94 43.9126 75.93C43.7226 75.93 43.5476 75.92 43.3876 75.9C43.2276 75.89 43.1976 75.885 43.2976 75.885C43.2876 75.875 43.2576 75.86 43.2076 75.84C43.1576 75.83 43.0726 75.815 42.9526 75.795C42.8326 75.785 42.6926 75.78 42.5326 75.78L41.9476 75.81C41.8776 75.8 41.8226 75.805 41.7826 75.825C41.7426 75.855 41.6976 75.895 41.6476 75.945C41.5676 76.045 41.4726 76.095 41.3626 76.095C41.2426 76.105 41.1576 76.035 41.1076 75.885C41.0676 75.735 41.0476 75.615 41.0476 75.525C41.0376 75.325 41.1176 75.15 41.2876 75C41.4576 74.85 41.7876 74.785 42.2776 74.805C42.4276 74.365 42.5426 73.97 42.6226 73.62C42.7026 73.28 42.7826 72.87 42.8626 72.39C42.9626 71.79 43.0576 71.32 43.1476 70.98L42.0226 68.4C41.9326 68.21 41.7976 67.82 41.6176 67.23C41.4376 66.64 41.2576 66.03 41.0776 65.4C40.5976 63.72 40.2926 62.735 40.1626 62.445C40.1326 62.355 40.0976 62.24 40.0576 62.1C40.0276 61.96 39.9876 61.855 39.9376 61.785C39.8976 61.705 39.8326 61.665 39.7426 61.665H39.1426C39.0726 61.595 38.9576 61.515 38.7976 61.425C38.7076 61.365 38.6376 61.315 38.5876 61.275C38.5476 61.225 38.5276 61.16 38.5276 61.08C38.9276 60.88 40.0276 60.78 41.8276 60.78C41.9676 60.78 42.0826 60.84 42.1726 60.96C42.2626 61.08 42.3076 61.22 42.3076 61.38C42.0576 61.39 41.9326 61.625 41.9326 62.085C41.9326 62.515 42.0276 63.085 42.2176 63.795C42.4076 64.505 42.6226 65.195 42.8626 65.865C43.1126 66.525 43.2976 66.98 43.4176 67.23C43.5876 67.62 43.7576 68.045 43.9276 68.505C44.0376 67.835 44.1276 67.335 44.1976 67.005C44.2776 66.665 44.3826 66.4 44.5126 66.21L44.9626 64.68C45.1626 64.3 45.3576 63.805 45.5476 63.195C45.7476 62.575 45.8326 62.07 45.8026 61.68C45.5326 61.68 45.3576 61.625 45.2776 61.515C45.2076 61.395 45.1676 61.27 45.1576 61.14C45.1476 61 45.1376 60.9 45.1276 60.84C45.1976 60.74 45.3076 60.69 45.4576 60.69C45.5576 60.69 45.6976 60.71 45.8776 60.75C46.0976 60.8 46.2526 60.815 46.3426 60.795L47.0776 60.69L47.4076 60.6C47.7076 60.5 47.9326 60.45 48.0826 60.45C48.3826 60.45 48.5676 60.62 48.6376 60.96Z" fill="#8C006D"/>
</svg>
