<svg width="13" height="51" viewBox="0 0 13 51" fill="none" xmlns="http://www.w3.org/2000/svg">
<path d="M10.3 4.7C9.8 11.2333 9.55 18.15 9.55 25.45C9.55 32.7167 9.8 39.6333 10.3 46.2C10.3333 46.2333 10.6 46.45 11.1 46.85C11.5333 47.15 11.85 47.45 12.05 47.75C12.25 48.0833 12.35 48.5833 12.35 49.25C12.1167 49.4833 11.8167 49.6333 11.45 49.7C11.2167 49.7333 10.85 49.75 10.35 49.75C9.81667 49.75 9.4 49.7667 9.1 49.8C8.8 49.8667 8.53333 50.0167 8.3 50.25C8.2 50.15 7.98333 50.0667 7.65 50C7.45 49.9667 7.1 49.95 6.6 49.95L3.95 50C2.81667 50 1.9 49.8667 1.2 49.6C0.533333 49.3667 0.2 48.9 0.2 48.2C0.2 47.7333 0.4 47.45 0.8 47.35C1.23333 47.25 2.05 47.2 3.25 47.2V41.15V30C3.25 28.8 3.33333 27.5 3.5 26.1C3.63333 24.5667 3.7 23.4167 3.7 22.65C3.7 21.2833 3.55 20.0167 3.25 18.85C3.55 18.2833 3.7 17.4333 3.7 16.3C3.7 15.6333 3.63333 14.5333 3.5 13C3.33333 11.7667 3.25 10.6833 3.25 9.75C2.98333 9.75 2.68333 9.95 2.35 10.35C2.15 10.5833 1.96667 10.7667 1.8 10.9C1.63333 11 1.43333 11.05 1.2 11.05C0.933333 11.05 0.6 10.95 0.2 10.75V8.75C0.566667 7.65 1.11667 6.16667 1.85 4.3C1.98333 3.96667 2.18333 3.45 2.45 2.75C2.75 2.01666 3.01667 1.31666 3.25 0.649998C3.51667 0.649998 4.05 0.616665 4.85 0.549999C5.45 0.449999 6.1 0.399998 6.8 0.399998C8.3 0.399998 9.46667 0.816665 10.3 1.65V4.7Z" fill="#FF4CC4"/>
</svg>
