<svg width="35" height="36" viewBox="0 0 35 36" fill="none" xmlns="http://www.w3.org/2000/svg">
<path d="M17.5044 0H17.4956C7.84656 0 0 8.073 0 18C0 21.9375 1.23375 25.587 3.33156 28.5503L1.15062 35.2373L7.87719 33.0255C10.6444 34.911 13.9453 36 17.5044 36C27.1534 36 35 27.9247 35 18C35 8.07525 27.1534 0 17.5044 0Z" fill="url(#paint0_linear)"/>
<path d="M17.5044 0H17.4956C7.84656 0 0 8.073 0 18C0 21.9375 1.23375 25.587 3.33156 28.5503L1.15062 35.2373L7.87719 33.0255C10.6444 34.911 13.9453 36 17.5044 36C27.1534 36 35 27.9247 35 18C35 8.07525 27.1534 0 17.5044 0ZM27.6872 25.4182C27.265 26.6445 25.5894 27.6615 24.2528 27.9585C23.3384 28.1588 22.1441 28.3185 18.1234 26.604C12.9806 24.4125 9.66875 19.0372 9.41063 18.6885C9.16344 18.3398 7.3325 15.8423 7.3325 13.2593C7.3325 10.6763 8.60781 9.4185 9.12187 8.8785C9.54406 8.43525 10.2419 8.23275 10.9113 8.23275C11.1278 8.23275 11.3225 8.244 11.4975 8.253C12.0116 8.2755 12.2697 8.307 12.6087 9.14175C13.0309 10.188 14.0591 12.771 14.1816 13.0365C14.3062 13.302 14.4309 13.662 14.2559 14.0108C14.0919 14.3708 13.9475 14.5305 13.6894 14.8365C13.4312 15.1425 13.1862 15.3765 12.9281 15.705C12.6919 15.9908 12.425 16.2968 12.7225 16.8255C13.02 17.343 14.0481 19.0688 15.5619 20.4548C17.5153 22.2435 19.0991 22.815 19.6656 23.058C20.0878 23.238 20.5909 23.1952 20.8994 22.8577C21.2909 22.4235 21.7744 21.7035 22.2666 20.9948C22.6166 20.4863 23.0584 20.4232 23.5222 20.6032C23.9947 20.772 26.495 22.0432 27.0091 22.3065C27.5231 22.572 27.8622 22.698 27.9869 22.9207C28.1094 23.1435 28.1094 24.1897 27.6872 25.4182Z" fill="white"/>
<defs>
<linearGradient id="paint0_linear" x1="17.5" y1="0" x2="17.5" y2="36" gradientUnits="userSpaceOnUse">
<stop stop-color="#FF3898"/>
<stop offset="1" stop-color="#F30AF8"/>
</linearGradient>
</defs>
</svg>
