<svg width="21" height="51" viewBox="0 0 21 51" fill="none" xmlns="http://www.w3.org/2000/svg">
<path d="M11.1 19.05C11.6333 19.55 12.05 19.9167 12.35 20.15C12.6833 20.35 13.3 20.65 14.2 21.05C15.2667 21.4833 16.6 22.85 18.2 25.15C18.9333 26.1833 19.45 27.1167 19.75 27.95C20.0833 28.75 20.25 29.85 20.25 31.25C20.5167 32.7833 20.65 34.2667 20.65 35.7C20.65 38.2333 20.2667 40.55 19.5 42.65C18.7667 44.7833 17.6667 46.4167 16.2 47.55C15 48.75 14.1 49.5333 13.5 49.9C12.9333 50.3 12.1333 50.5333 11.1 50.6C10.4 50.6667 9.36667 50.7 8 50.7L5 50.65C4.5 50.6167 3.81667 50.6 2.95 50.6C1.68333 49.3333 1.05 47.5167 1.05 45.15C1.05 43.9167 1.21667 42.6833 1.55 41.45C1.91667 40.25 2.38333 39.2333 2.95 38.4C3.28333 38.4 3.78333 38.5667 4.45 38.9C5.18333 39.2333 5.71667 39.4 6.05 39.4C6.05 40.4 5.91667 41.6667 5.65 43.2C5.45 44.4667 5.35 45.3 5.35 45.7C5.35 46.3333 5.46667 46.8 5.7 47.1C5.93333 47.4 6.36667 47.55 7 47.55C8.36667 47.55 9.6 46.9 10.7 45.6C11.8 44.3333 12.6167 42.9333 13.15 41.4C13.4833 40.4667 13.75 39.45 13.95 38.35L14.2 36.85C14.2667 36.55 14.3 36.0167 14.3 35.25L14.25 33.35C14.2167 33.0833 14.2 32.7333 14.2 32.3C14.2 31.2667 14.0333 30.35 13.7 29.55C13.3667 28.7167 12.8333 27.9333 12.1 27.2C11.5 26.6 10.9167 25.85 10.35 24.95C10.0833 24.5167 9.83333 24.2 9.6 24C9.4 23.7667 9.08333 23.5667 8.65 23.4C8.15 23.2 7.5 23.0167 6.7 22.85C6.33333 22.7833 6.01667 22.7167 5.75 22.65C5.51667 22.55 5.26667 22.3667 5 22.1C4.46667 21.5667 4.15 21.2167 4.05 21.05C3.98333 20.8833 3.95 20.5333 3.95 20C4.61667 19.9 5.31667 18.9 6.05 17C6.31667 16.3 6.66667 15.5667 7.1 14.8C7.56667 14.0333 8.03333 13.2833 8.5 12.55C9.5 10.95 10.2833 9.6 10.85 8.5C11.4167 7.36667 11.8333 6.11667 12.1 4.75C10.7 4.28333 9.35 4.05 8.05 4.05C6.75 4.05 5.38333 4.28333 3.95 4.75C3.95 5.41666 3.88333 6.26666 3.75 7.3C3.65 8.33333 3.38333 8.85 2.95 8.85C2.85 8.91667 2.71667 8.95 2.55 8.95C1.48333 8.95 0.95 6.53333 0.95 1.7C1.38333 1.26667 2.1 0.999999 3.1 0.899998C4.1 0.766664 5.4 0.699997 7 0.699997C7.43333 0.699997 8.05 0.733331 8.85 0.799999C9.78333 0.866665 10.55 0.899998 11.15 0.899998C12.0833 0.899998 13.1 0.833331 14.2 0.699997H16.2C16.8667 0.699997 17.3667 0.899998 17.7 1.3C18.0333 1.7 18.2 2.18333 18.2 2.75V4.75C17.9 5.35 17.65 5.91667 17.45 6.45C17.25 6.95 17.05 7.41666 16.85 7.85C16.25 9.31667 15.7167 10.5167 15.25 11.45C14.8167 12.3833 14.3333 13.2167 13.8 13.95C12.5333 16.2833 11.6333 17.9833 11.1 19.05Z" fill="#FF4CC4"/>
</svg>
