<svg width="25" height="51" viewBox="0 0 25 51" fill="none" xmlns="http://www.w3.org/2000/svg">
<path d="M7.55 45.9C8.01667 46.7667 8.93333 47.2 10.3 47.2C10.9333 47.2 11.5667 47.15 12.2 47.05C13 46.9833 13.55 46.95 13.85 46.95C15.4167 46.95 16.7333 46.8833 17.8 46.75C18.9 46.65 19.6833 46.3667 20.15 45.9C20.3833 45.4333 20.5333 44.95 20.6 44.45C20.6667 43.95 20.7 43.65 20.7 43.55C20.8 42.75 20.9333 42.1333 21.1 41.7C21.3 41.3 21.6833 40.95 22.25 40.65C23.1167 40.65 23.7 41.0167 24 41.75C24.3333 42.4833 24.5 43.5 24.5 44.8C24.5 45.3333 24.4667 46.1 24.4 47.1L24.35 49.05C24.1167 49.2833 23.6833 49.4333 23.05 49.5C22.65 49.5333 21.9833 49.55 21.05 49.55C20.05 49.55 19.2333 49.5667 18.6 49.6C17.9667 49.6667 17.4167 49.8167 16.95 50.05H9.65H7.55C7.38333 50.05 7 50.1167 6.4 50.25C5.66667 50.45 5.08333 50.55 4.65 50.55C4.11667 50.55 3.68333 50.3833 3.35 50.05C3.05 50.05 2.81667 49.9667 2.65 49.8C2.51667 49.6667 2.33333 49.4333 2.1 49.1C1.9 48.7333 1.63333 48.3667 1.3 48C1.3 47.7 1.21667 46.9667 1.05 45.8C0.883333 45.1333 0.8 44.5667 0.8 44.1C0.8 43.5333 0.966667 43.0833 1.3 42.75C1.3 42.3833 1.46667 41.8667 1.8 41.2C2.13333 40.4667 2.3 39.9333 2.3 39.6C3 38.9 3.6 38.1 4.1 37.2C4.63333 36.3 5.18333 35.2 5.75 33.9C5.91667 33.5 6.16667 32.9667 6.5 32.3C8.36667 30.8667 9.88333 29.1 11.05 27C12.2167 24.8667 13.4833 22.0833 14.85 18.65C15.6833 15.5833 16.1 12.9667 16.1 10.8C16.1 8.6 15.6833 6.66667 14.85 5C14.55 5 14.25 4.93333 13.95 4.8C13.65 4.63333 13.4 4.46667 13.2 4.3C13 4.13333 12.8667 4.01667 12.8 3.95H8.6C8.13333 3.95 7.66667 4.13333 7.2 4.5C6.73333 4.83333 6.15 5.35 5.45 6.05C5.45 6.85 5.26667 7.73333 4.9 8.7C4.56667 9.7 4.4 10.55 4.4 11.25C4.73333 11.5833 5.33333 11.9167 6.2 12.25C6.66667 12.45 7 12.6333 7.2 12.8C7.43333 12.9333 7.55 13.1167 7.55 13.35C7.55 13.85 7.16667 14.3333 6.4 14.8C5.66667 15.2333 5 15.45 4.4 15.45C3.86667 15.45 3.45 15.2833 3.15 14.95C2.85 14.5833 2.55 14.1 2.25 13.5C2.08333 13.1 1.91667 12.8167 1.75 12.65C1.61667 12.45 1.46667 12.35 1.3 12.35V7.1C1.4 6.96666 1.71667 6.45 2.25 5.55C2.91667 4.41666 3.48333 3.55 3.95 2.95C4.45 2.35 5.06667 1.85 5.8 1.45C6.56667 1.01667 7.5 0.799999 8.6 0.799999C9.33333 0.733331 9.88333 0.699997 10.25 0.699997H10.5C13.0333 0.699997 15.2167 1.23333 17.05 2.3C18.8833 3.33333 20.2833 4.8 21.25 6.7C22.2167 8.6 22.7 10.7833 22.7 13.25C22.7 14.6167 22.55 16.05 22.25 17.55C21.85 19.4167 21.1 21.2833 20 23.15C18.9333 25.0167 17.5333 27.2333 15.8 29.8L14.85 31.2C14.85 31.6 14.6833 31.9667 14.35 32.3C14.0167 32.6333 13.85 32.9667 13.85 33.3C13.2167 34.5333 12.4333 35.85 11.5 37.25C10.3667 39.0833 9.5 40.6 8.9 41.8C8.3 43 7.85 44.3667 7.55 45.9Z" fill="#FF4CC4"/>
</svg>
