<svg width="31" height="30" viewBox="0 0 31 30" fill="none" xmlns="http://www.w3.org/2000/svg">
<g clip-path="url(#clip0)">
<path d="M15.8861 0C7.60212 0 0.886108 6.7157 0.886108 15C0.886108 23.2843 7.60212 30 15.8861 30C24.1701 30 30.8861 23.2843 30.8861 15C30.8861 6.7157 24.1701 0 15.8861 0ZM23.4949 16.6223C24.194 17.3052 24.9337 17.9478 25.5613 18.7013C25.8394 19.0346 26.1015 19.3792 26.3009 19.7669C26.5857 20.3196 26.3286 20.9257 25.8338 20.9586L22.7608 20.958C21.9671 21.0236 21.3355 20.7035 20.803 20.1609C20.378 19.7285 19.9836 19.2666 19.5742 18.8194C19.4069 18.6359 19.2308 18.4631 19.0208 18.3272C18.6019 18.0546 18.2379 18.1381 17.9979 18.5758C17.7533 19.0211 17.6975 19.5146 17.6741 20.0102C17.6407 20.7348 17.4222 20.9242 16.6951 20.9583C15.1416 21.031 13.6675 20.7953 12.2975 20.0121C11.0889 19.3212 10.1534 18.3462 9.33828 17.2423C7.75097 15.0902 6.53532 12.7283 5.44304 10.2985C5.19721 9.7513 5.37705 9.45852 5.98074 9.44716C6.9837 9.42783 7.98667 9.43028 8.98964 9.44624C9.39782 9.45268 9.6679 9.68624 9.82473 10.0714C10.3667 11.4049 11.0312 12.6737 11.8638 13.8503C12.0857 14.1637 12.3122 14.4761 12.6348 14.6974C12.9908 14.9417 13.2621 14.861 13.4299 14.4635C13.5374 14.2109 13.5837 13.9409 13.607 13.6702C13.6868 12.743 13.6963 11.8162 13.5582 10.8927C13.4723 10.3148 13.1473 9.94158 12.5712 9.83233C12.2778 9.77678 12.3208 9.66813 12.4635 9.50056C12.7112 9.21084 12.9432 9.03161 13.4069 9.03161L16.8789 9.031C17.4262 9.13841 17.5489 9.38394 17.6232 9.93514L17.6263 13.7936C17.6198 14.0069 17.7334 14.6391 18.1164 14.7787C18.4233 14.88 18.6259 14.6339 18.8094 14.4396C19.642 13.556 20.2353 12.5131 20.7665 11.4338C21.001 10.9577 21.2032 10.4652 21.3997 9.97166C21.5457 9.60675 21.7729 9.42721 22.1847 9.43335L25.5282 9.43734C25.6267 9.43734 25.7267 9.43826 25.8243 9.45514C26.3878 9.55151 26.5422 9.79396 26.3678 10.3436C26.0935 11.2073 25.5604 11.9266 25.0393 12.6479C24.4807 13.4201 23.885 14.1652 23.3319 14.9408C22.8237 15.6497 22.8639 16.0066 23.4949 16.6223Z" fill="#85DBCB"/>
</g>
<defs>
<clipPath id="clip0">
<rect width="30" height="30" fill="white" transform="translate(0.886108)"/>
</clipPath>
</defs>
</svg>
