<svg width="28" height="28" viewBox="0 0 28 28" fill="none" xmlns="http://www.w3.org/2000/svg">
<g clip-path="url(#clip0)">
<path d="M14.0034 0H13.9966C6.55306 0 0.5 6.279 0.5 14C0.5 17.0625 1.45175 19.901 3.07006 22.2057L1.38763 27.4067L6.57669 25.6865C8.71138 27.153 11.2578 28 14.0034 28C21.4469 28 27.5 21.7192 27.5 14C27.5 6.28075 21.4469 0 14.0034 0ZM21.8587 19.7698C21.533 20.7235 20.2404 21.5145 19.2093 21.7455C18.5039 21.9012 17.5826 22.0255 14.4809 20.692C10.5136 18.9875 7.95875 14.8067 7.75962 14.5355C7.56894 14.2642 6.1565 12.3218 6.1565 10.3127C6.1565 8.30375 7.14031 7.3255 7.53688 6.9055C7.86256 6.56075 8.40088 6.40325 8.91725 6.40325C9.08431 6.40325 9.2345 6.412 9.3695 6.419C9.76606 6.4365 9.96519 6.461 10.2267 7.11025C10.5524 7.924 11.3456 9.933 11.4401 10.1395C11.5363 10.346 11.6324 10.626 11.4974 10.8973C11.3709 11.1773 11.2595 11.3015 11.0604 11.5395C10.8612 11.7775 10.6722 11.9595 10.4731 12.215C10.2909 12.4373 10.085 12.6753 10.3145 13.0865C10.544 13.489 11.3371 14.8312 12.5049 15.9092C14.0118 17.3005 15.2336 17.745 15.6706 17.934C15.9963 18.074 16.3844 18.0408 16.6224 17.7783C16.9244 17.4405 17.2974 16.8805 17.6771 16.3293C17.9471 15.9338 18.2879 15.8847 18.6457 16.0247C19.0102 16.156 20.939 17.1447 21.3356 17.3495C21.7321 17.556 21.9937 17.654 22.0899 17.8273C22.1844 18.0005 22.1844 18.8142 21.8587 19.7698Z" fill="white"/>
</g>
<defs>
<clipPath id="clip0">
<rect width="27" height="28" fill="white" transform="translate(0.5)"/>
</clipPath>
</defs>
</svg>
